{"title":"Bridesmaids 2011 TS READNFO XviD - IMAGiNE","uid":6499754,"size":1476644998,"categoryP":"video","categoryS":"movies","magnet":"?xt=urn:btih:ea7b872013534fa717fca2157b22555a030ff3c0&amp;dn=Bridesmaids+2011+TS+READNFO+XviD+-+IMAGiNE&amp;tr=udp%3A%2F%2Ftracker.openbittorrent.com%3A80&amp;tr=udp%3A%2F%2Fopen.demonii.com%3A1337&amp;tr=udp%3A%2F%2Ftracker.coppersurfer.tk%3A6969&amp;tr=udp%3A%2F%2Fexodus.desync.com%3A6969","seeders":7,"leechers":0,"uploader":"sundox","files":1,"time":1309205321,"description":"*********** **** **** *** ******** *********** **** *** **********\n*+* +*+*+* *+*+*+ *+* *+* *+* *+* *+* *+*+* *+* *+* \n+*+ +*+ +*+*+ +*+ +*+ +*+ +*+ +*+ *+*+*+ +*+ +*+ \n+$+ +$+ +*+ +$+ +$++*++$++* *$* +$+ +$+ +*+ +$+ +$++*++$ \n+$+ +$+ +$+ +$+ +$+ +$+ +$+$ +$+ +$+ +$+$+$ +$+ \n$+$ $+$ $+$ $+$ $+$ $+$ $+$ $+$ $+$ $+$+$ $+$ \n$$$$$$$$$$$ $$$ $$$ $$$ $$$ $$$$$$$$ $$$$$$$$$$$ $$$ $$$$ $$$$$$$$$$ \n\nAnother Fine Release Brought to you from - IMAGiNE \n\n******************************************************************************************************************** \nBridesmaids 2011 TS READNFO XViD - IMAGiNE\n********************************************************************************************************************\nRipper ...........: IMAGiNE IMDB Rating.......: 7.7/10 \nVideo Codec.......: XVID Release Date......: 27/06/11\nAudio Codec.......: MP3 Theatre Date......: 13/05/11\nAudio Bitrate.....: 128 Runtime.......: 1h 57mn\nSubtitles.........: NIL Language..........: ENGLISH\nResolution......: 720 x 304 IMDb URL..........: http://www.imdb.com/title/tt1478338/\nDETAILS:\nVideo\nID : 0\nFormat : MPEG-4 Visual\nFormat profile : Advanced Simple@L5\nFormat settings, BVOP : 2\nFormat settings, QPel : No\nFormat settings, GMC : No warppoints\nFormat settings, Matrix : Default (MPEG)\nMuxing mode : Packed bitstream\nCodec ID : XVID\nCodec ID/Hint : XviD\nDuration : 1h 57mn\nBit rate : 1 537 Kbps\nWidth : 720 pixels\nHeight : 304 pixels\nDisplay aspect ratio : 2.35:1\nFrame rate : 25.000 fps\nColor space : YUV\nChroma subsampling : 4:2:0\nBit depth : 8 bits\nScan type : Progressive\nCompression mode : Lossy\nBits/(Pixel*Frame) : 0.281\nStream size : 1.26 GiB (92%)\nWriting library : XviD 61\nAudio\nID : 1\nFormat : MPEG Audio\nFormat version : Version 1\nFormat profile : Layer 3\nMode : Joint stereo\nMode extension : MS Stereo\nCodec ID : 55\nCodec ID/Hint : MP3\nDuration : 1h 57mn\nBit rate mode : Constant\nBit rate : 128 Kbps\nChannel(s) : 2 channels\nSampling rate : 44.1 KHz\nCompression mode : Lossy\nStream size : 108 MiB (8%)\nAlignment : Split accross interleaves\nInterleave, duration : 40 ms (1.00 video frame)\nWriting library : LAME3.98r\nSOURCES:\nVIDEO:Devichnik.v.Vegase.2011.D.TS.avi\nAUDIO:Special Friend ;-)\nNOTES:\nIMAGiNE bringing you another release..........Bridesmaids\nOk here we go with a pretty decent TS release of this much wanted flick .....\nFirstly the video.....the base of it was good but needed tweaking and sharpening.However there\nwas several mins at the start where there was borders and top and bottom and also above the borders there\nwas a faint line...but otherwise decent a cam.\nWhat we did was made a script with all the settings we needed and loaded it into vdub and cut the video at 21075 and\ncropped the borders and line and resize to match the rest of the video....yes AR is off for this part,but only way to \nappend it unless you wanted the borders.\nThen we had to reload the script cut the part we already did and remove the crop command.\nNow audio...pretty decent line but syncing was a pita as we found there was missing video when syncing,which makes it harder lol.\nAnyway.....10 seconds missing at 12:18 8 seconds missing at the join where we cut the bars frame 21075 ..... and another 11 seconds at 1:33:39.\nAt one point you\\'ll heard the audio and theres no one moving their mouths...thats where the video should have been and then it kicks back in ....only last\na few secs that part.\nAnyway enjoy folks :)\n &lt;a href=&quot;\nhttp://pix2links.com/images/88956605346055638058.jpg&quot; rel=&quot;nofollow&quot; target=&quot;_NEW&quot;&gt;\nhttp://pix2links.com/images/88956605346055638058.jpg&lt;/a&gt; &lt;a href=&quot;\nhttp://pix2links.com/images/26480744460204204677.jpg&quot; rel=&quot;nofollow&quot; target=&quot;_NEW&quot;&gt;\nhttp://pix2links.com/images/26480744460204204677.jpg&lt;/a&gt; &lt;a href=&quot;\nhttp://pix2links.com/images/13351367108396646882.jpg&quot; rel=&quot;nofollow&quot; target=&quot;_NEW&quot;&gt;\nhttp://pix2links.com/images/13351367108396646882.jpg&lt;/a&gt; &lt;a href=&quot;\nhttp://pix2links.com/images/68526311376935004590.jpg&quot; rel=&quot;nofollow&quot; target=&quot;_NEW&quot;&gt;\nhttp://pix2links.com/images/68526311376935004590.jpg&lt;/a&gt; &lt;a href=&quot;\nhttp://pix2links.com/images/86679588075065729311.jpg&quot; rel=&quot;nofollow&quot; target=&quot;_NEW&quot;&gt;\nhttp://pix2links.com/images/86679588075065729311.jpg&lt;/a&gt;","torrent":{"xt":"urn:btih:ea7b872013534fa717fca2157b22555a030ff3c0","amp;dn":"Bridesmaids+2011+TS+READNFO+XviD+-+IMAGiNE","amp;tr":["udp%3A%2F%2Ftracker.openbittorrent.com%3A80","udp%3A%2F%2Fopen.demonii.com%3A1337","udp%3A%2F%2Ftracker.coppersurfer.tk%3A6969","udp%3A%2F%2Fexodus.desync.com%3A6969"],"infoHash":"ea7b872013534fa717fca2157b22555a030ff3c0","infoHashBuffer":{"type":"Buffer","data":[234,123,135,32,19,83,79,167,23,252,162,21,123,34,85,90,3,15,243,192]},"announce":[],"urlList":[]}}